<svg width="126" height="125" viewBox="0 0 126 125" fill="none" xmlns="http://www.w3.org/2000/svg">
<circle cx="63.5" cy="62.5" r="4.5" fill="#F8B171"/>
<circle cx="64" cy="116" r="2" fill="#393939"/>
<path d="M48.8868 118.956L50.8094 110.803L52.4445 111.189L50.522 119.341L48.8868 118.956Z" fill="#373737"/>
<path d="M37.4713 105.498L38.9754 106.246L39.8213 113.087L42.3813 107.941L43.8855 108.689L40.1497 116.199L38.6455 115.451L37.805 108.599L35.2396 113.756L33.7355 113.008L37.4713 105.498Z" fill="#373737"/>
<path d="M23.7209 93.1967C24.2011 93.8164 24.4966 94.4983 24.6075 95.2422C24.7184 95.9862 24.6354 96.7084 24.3583 97.4088C24.075 98.1141 23.6076 98.7192 22.9562 99.2238C22.3112 99.7236 21.615 100.02 20.8676 100.114C20.1138 100.212 19.3906 100.114 18.6979 99.8212C18.0052 99.528 17.4188 99.0716 16.9386 98.4518C16.4535 97.8258 16.158 97.1439 16.052 96.4063C15.9411 95.6624 16.0297 94.9409 16.318 94.2419C16.595 93.5414 17.0561 92.9413 17.7011 92.4415C18.3525 91.9368 19.055 91.6354 19.8088 91.5371C20.5513 91.4374 21.2689 91.5342 21.9616 91.8273C22.6543 92.1205 23.2407 92.577 23.7209 93.1967ZM22.5352 94.1154C22.2265 93.717 21.866 93.4346 21.4538 93.2683C21.0352 93.1069 20.5921 93.0706 20.1247 93.1596C19.6572 93.2485 19.2022 93.4645 18.7595 93.8075C18.3168 94.1505 17.9972 94.5347 17.8007 94.9603C17.5978 95.3907 17.5254 95.8263 17.5836 96.267C17.6417 96.7078 17.8251 97.1274 18.1338 97.5258C18.4425 97.9242 18.8054 98.2097 19.2226 98.3824C19.6348 98.5487 20.0747 98.5874 20.5422 98.4985C21.0033 98.4144 21.4552 98.2009 21.8979 97.8579C22.3405 97.5149 22.6633 97.1282 22.8662 96.6977C23.069 96.2673 23.1446 95.8293 23.0928 95.3836C23.0297 94.9366 22.8439 94.5138 22.5352 94.1154Z" fill="#373737"/>
<path d="M9.34661 85.4464L14.1813 83.5756C14.711 83.3706 15.0642 83.0753 15.2409 82.6895C15.4102 82.3066 15.3981 81.8653 15.2046 81.3654C15.0083 80.858 14.7187 80.5197 14.3358 80.3505C13.9455 80.1842 13.4855 80.2035 12.9558 80.4085L8.12108 82.2792L7.51049 80.7012L12.334 78.8348C12.998 78.5779 13.6176 78.5054 14.1928 78.6174C14.7576 78.7248 15.2495 78.9762 15.6684 79.3717C16.0845 79.7597 16.4065 80.2484 16.6346 80.8378C16.8598 81.4197 16.9491 81.9942 16.9026 82.5612C16.8532 83.1207 16.6543 83.6266 16.306 84.0788C15.9503 84.5338 15.4404 84.8898 14.7764 85.1467L9.95287 87.0132L9.34661 85.4464Z" fill="#373737"/>
<path d="M13.2185 66.4143L10.1536 68.5765L10.2321 69.3646L13.48 69.0414L13.6464 70.7131L5.31159 71.5427L5.0002 68.4141C4.93602 67.7693 4.99678 67.2085 5.18248 66.7318C5.36021 66.2559 5.63303 65.887 6.00091 65.6253C6.36005 65.3564 6.77844 65.1982 7.25608 65.1506C7.80536 65.096 8.31875 65.2057 8.79624 65.4797C9.26577 65.7546 9.61542 66.1981 9.84519 66.8104L13.026 64.4799L13.2185 66.4143ZM8.97826 69.4894L8.83921 68.0923C8.79404 67.6386 8.6529 67.3109 8.41578 67.1094C8.17069 66.9087 7.85311 66.8278 7.46304 66.8666C7.08093 66.9046 6.79748 67.0454 6.61269 67.2889C6.41993 67.5332 6.34614 67.8822 6.3913 68.336L6.53035 69.7331L8.97826 69.4894Z" fill="#373737"/>
<path d="M11.0556 42.3942C11.4808 42.5355 11.8453 42.7704 12.1492 43.099C12.4556 43.42 12.6508 43.8347 12.7347 44.3431C12.8212 44.8439 12.756 45.4208 12.5391 46.0737L12.0964 47.4061L15.1483 48.4202L14.6185 50.0145L6.66985 47.3733L7.64231 44.4466C7.84664 43.8317 8.12698 43.3432 8.48334 42.9811C8.8397 42.619 9.2392 42.3934 9.68183 42.3045C10.127 42.2079 10.5849 42.2378 11.0556 42.3942ZM11.2295 45.7145C11.3759 45.2741 11.3856 44.9149 11.2589 44.6367C11.1245 44.356 10.8751 44.1552 10.5107 44.0341C9.73636 43.7768 9.20539 44.0809 8.91781 44.9463L8.4978 46.2104L10.8095 46.9785L11.2295 45.7145Z" fill="#F8B171"/>
<path d="M21.8514 34.4695L18.1086 34.2235L17.674 34.8857L20.4028 36.6766L19.481 38.0811L12.4785 33.4853L14.2036 30.8568C14.5591 30.3151 14.959 29.9172 15.4031 29.6633C15.8406 29.405 16.2847 29.2897 16.7353 29.3175C17.1836 29.3343 17.6084 29.4743 18.0097 29.7377C18.4712 30.0406 18.8014 30.4487 19.0004 30.962C19.1927 31.471 19.1856 32.0357 18.9793 32.6563L22.918 32.8442L21.8514 34.4695ZM16.6207 34.1943L17.391 33.0205C17.6412 32.6393 17.7375 32.2958 17.6798 31.99C17.6154 31.6798 17.4194 31.4172 17.0917 31.2021C16.7706 30.9914 16.4617 30.9226 16.1649 30.9958C15.8614 31.0645 15.5846 31.2895 15.3344 31.6708L14.564 32.8445L16.6207 34.1943Z" fill="#F8B171"/>
<path d="M30.1968 25.2783C29.6023 25.7894 28.9363 26.1191 28.199 26.2677C27.4616 26.4162 26.7361 26.3699 26.0225 26.1288C25.3037 25.8816 24.6757 25.4456 24.1386 24.8207C23.6067 24.2019 23.2752 23.5216 23.144 22.7799C23.0076 22.0321 23.0682 21.3048 23.3258 20.5982C23.5835 19.8915 24.0095 19.2826 24.6041 18.7716C25.2047 18.2553 25.8707 17.9255 26.602 17.7822C27.3393 17.6337 28.0644 17.6856 28.7771 17.938C29.4907 18.1792 30.1135 18.6091 30.6454 19.2279C31.1825 19.8528 31.5192 20.5392 31.6556 21.287C31.7929 22.0235 31.7327 22.7451 31.4751 23.4518C31.2175 24.1584 30.7914 24.7673 30.1968 25.2783ZM29.2191 24.1408C29.6013 23.8123 29.865 23.4379 30.0102 23.0177C30.1502 22.5915 30.1639 22.1472 30.0513 21.6849C29.9387 21.2225 29.6999 20.779 29.3349 20.3543C28.9699 19.9296 28.5699 19.63 28.1349 19.4553C27.6947 19.2745 27.256 19.2244 26.8188 19.3048C26.3816 19.3852 25.9719 19.5897 25.5897 19.9182C25.2074 20.2468 24.9407 20.6237 24.7894 21.0491C24.6442 21.4693 24.6279 21.9105 24.7405 22.3729C24.8479 22.8292 25.084 23.2696 25.4491 23.6943C25.8141 24.119 26.2167 24.4217 26.6569 24.6025C27.0971 24.7832 27.5384 24.8364 27.9808 24.762C28.4241 24.6764 28.8369 24.4693 29.2191 24.1408Z" fill="#F8B171"/>
<path d="M38.3687 10.0104C39.1722 9.65155 39.9473 9.49381 40.6938 9.53716C41.4477 9.57725 42.1195 9.81609 42.7092 10.2537C43.3029 10.6807 43.771 11.2777 44.1135 12.0447C44.456 12.8117 44.5881 13.5587 44.5098 14.2859C44.4356 15.0024 44.1618 15.6548 43.6884 16.2429C43.2224 16.8277 42.5876 17.2996 41.7841 17.6584L39.1106 18.8523L35.6952 11.2043L38.3687 10.0104ZM41.1471 16.379C41.9506 16.0202 42.4736 15.5237 42.7162 14.8897C42.9587 14.2557 42.9022 13.5406 42.5467 12.7444C42.1911 11.9482 41.6947 11.4252 41.0574 11.1753C40.4169 10.9181 39.6948 10.969 38.8913 11.3278L37.8066 11.8122L40.0623 16.8634L41.1471 16.379Z" fill="#F8B171"/>
<path d="M52.602 5.51681L53.3253 10.6501C53.4046 11.2125 53.612 11.6236 53.9475 11.8833C54.2819 12.1351 54.7145 12.2236 55.2453 12.1488C55.7839 12.0729 56.1792 11.8678 56.431 11.5334C56.6817 11.191 56.7674 10.7386 56.6881 10.1762L55.9647 5.04292L57.6402 4.80681L58.3619 9.92821C58.4612 10.6332 58.3911 11.2531 58.1513 11.7878C57.9184 12.3134 57.5618 12.7353 57.0815 13.0535C56.6091 13.3705 56.06 13.5731 55.4342 13.6613C54.8163 13.7484 54.2365 13.7048 53.6949 13.5307C53.1613 13.3555 52.7138 13.0469 52.3526 12.605C51.9903 12.1551 51.7595 11.5777 51.6601 10.8726L50.9384 5.75124L52.602 5.51681Z" fill="#F8B171"/>
<path d="M66.1996 8.76395C66.3227 7.9492 66.6147 7.24896 67.0754 6.66323C67.5452 6.07079 68.1234 5.64441 68.81 5.38409C69.5057 5.11706 70.2491 5.04332 71.0401 5.16287C71.9656 5.30274 72.7405 5.66259 73.3649 6.2424C73.9892 6.82221 74.3765 7.55228 74.5266 8.4326L72.6163 8.14389C72.4862 7.71969 72.2621 7.38241 71.944 7.13205C71.6337 6.88289 71.2532 6.72424 70.8023 6.6561C70.3198 6.58317 69.8713 6.63271 69.457 6.80472C69.0517 6.97002 68.7112 7.24219 68.4355 7.62124C68.1676 8.00149 67.9919 8.46847 67.9082 9.02218C67.8257 9.56798 67.8556 10.066 67.9979 10.5164C68.1493 10.96 68.3936 11.3246 68.7307 11.6102C69.0769 11.889 69.4913 12.0649 69.9738 12.1378C70.4247 12.206 70.8351 12.1669 71.2051 12.0205C71.5843 11.8675 71.8986 11.6075 72.1483 11.2407L74.0586 11.5294C73.6538 12.334 73.0675 12.921 72.2997 13.2904C71.541 13.6531 70.6949 13.7639 69.7615 13.6228C68.9705 13.5032 68.2815 13.2171 67.6946 12.7643C67.1168 12.3048 66.6904 11.7266 66.4154 11.0296C66.1484 10.3339 66.0765 9.5787 66.1996 8.76395Z" fill="#F8B171"/>
<path d="M89.0935 10.9417L88.5406 12.1799L86.5026 11.2697L83.6401 17.6796L82.1061 16.9946L84.9686 10.5847L82.9306 9.67458L83.4835 8.43643L89.0935 10.9417Z" fill="#F8B171"/>
<path d="M93.2177 23.6587C92.7599 23.296 92.4081 22.8898 92.1624 22.4399C91.9229 21.995 91.8133 21.5407 91.8336 21.0771C91.8539 20.6135 92.0198 20.1785 92.3315 19.7722L93.7424 20.89C93.5476 21.1745 93.4727 21.4623 93.5178 21.7532C93.5692 22.049 93.7454 22.3162 94.0464 22.5546C94.3537 22.7981 94.6522 22.9172 94.942 22.9121C95.2368 22.9007 95.4786 22.7759 95.6674 22.5376C95.8214 22.3432 95.8885 22.1361 95.8688 21.9163C95.849 21.6965 95.7755 21.4801 95.6483 21.267C95.5323 21.0527 95.3523 20.7774 95.1084 20.4412C94.7813 19.978 94.5302 19.58 94.3549 19.2473C94.1909 18.9132 94.1086 18.5469 94.108 18.1483C94.1186 17.7485 94.2878 17.3416 94.6157 16.9277C94.9237 16.539 95.2892 16.2774 95.7121 16.1429C96.135 16.0085 96.5816 16.0051 97.052 16.1328C97.5274 16.2543 97.9908 16.4938 98.4423 16.8515C99.1195 17.388 99.5365 17.9889 99.6933 18.6541C99.8614 19.318 99.7339 19.962 99.3108 20.5862L97.8623 19.4387C98.0286 19.203 98.078 18.941 98.0104 18.6527C97.954 18.3631 97.7785 18.1016 97.4838 17.8681C97.2267 17.6644 96.9676 17.5663 96.7065 17.5738C96.4517 17.5862 96.2249 17.7179 96.0262 17.9687C95.8871 18.1443 95.8268 18.3363 95.8453 18.5449C95.875 18.7522 95.9447 18.9605 96.0544 19.1699C96.1753 19.3779 96.3553 19.6532 96.5943 19.9956C96.9213 20.4589 97.17 20.86 97.3403 21.199C97.5105 21.5381 97.5935 21.91 97.5892 22.3148C97.5849 22.7197 97.4212 23.1259 97.0983 23.5334C96.8201 23.8846 96.4709 24.1386 96.0506 24.2956C95.6303 24.4525 95.1725 24.4828 94.6773 24.3864C94.187 24.2838 93.7005 24.0412 93.2177 23.6587Z" fill="#F8B171"/>
<path d="M117.674 43.4531L109.086 44.8247L108.259 43.0256L113.022 39.1067L106.916 40.1034L106.084 38.3202L112.763 32.7676L113.515 34.4031L108.222 38.4603L114.843 37.2926L115.625 38.9935L110.419 43.1556L116.917 41.8066L117.674 43.4531Z" fill="#373737"/>
<path d="M118.695 54.2761L116.613 54.55L116.981 57.3459L115.66 57.5197L115.293 54.7238L113.092 55.0133L113.506 58.1661L112.15 58.3446L111.516 53.5261L119.833 52.4321L120.466 57.2506L119.11 57.429L118.695 54.2761Z" fill="#373737"/>
<path d="M117.771 80.9827L116.464 80.6221L117.057 78.4705L110.29 76.6034L110.737 74.9839L117.504 76.851L118.098 74.6994L119.405 75.06L117.771 80.9827Z" fill="#F8B171"/>
<path d="M105.182 88.2519L108.933 88.267L109.326 87.5794L106.492 85.9598L107.326 84.5012L114.598 88.6573L113.038 91.387C112.716 91.9496 112.342 92.3713 111.914 92.6521C111.493 92.9368 111.057 93.0792 110.606 93.0792C110.157 93.0901 109.725 92.9764 109.308 92.7383C108.829 92.4644 108.474 92.0774 108.244 91.5772C108.02 91.0811 107.993 90.517 108.16 89.8849L104.218 89.9397L105.182 88.2519ZM110.42 88.2046L109.723 89.4236C109.497 89.8195 109.422 90.1683 109.498 90.4699C109.582 90.7755 109.794 91.0256 110.134 91.2201C110.467 91.4107 110.78 91.4603 111.072 91.369C111.37 91.2817 111.633 91.0401 111.859 90.6442L112.556 89.4252L110.42 88.2046Z" fill="#F8B171"/>
<path d="M104.958 102.375L101.307 98.6955C100.906 98.2924 100.494 98.0872 100.07 98.0799C99.6515 98.0783 99.2519 98.2663 98.8715 98.6438C98.4854 99.027 98.2915 99.4279 98.2899 99.8465C98.294 100.271 98.496 100.685 98.8961 101.088L102.548 104.767L101.347 105.959L97.7036 102.288C97.2021 101.783 96.8873 101.244 96.7594 100.672C96.6314 100.112 96.6646 99.5603 96.859 99.018C97.0478 98.4813 97.3664 97.9904 97.815 97.5452C98.2579 97.1057 98.7484 96.7936 99.2865 96.6089C99.819 96.4299 100.362 96.4094 100.916 96.5473C101.475 96.6908 102.006 97.0153 102.507 97.5206L106.151 101.192L104.958 102.375Z" fill="#F8B171"/>
<path d="M87.1739 105.683C87.6831 105.398 88.1925 105.226 88.702 105.17C89.2045 105.117 89.6664 105.188 90.0876 105.382C90.5089 105.577 90.8483 105.896 91.1059 106.338L89.5364 107.22C89.3471 106.931 89.1093 106.753 88.823 106.684C88.5298 106.62 88.2157 106.681 87.8809 106.869C87.5391 107.061 87.3156 107.292 87.2103 107.562C87.109 107.839 87.1328 108.11 87.2816 108.375C87.403 108.592 87.5691 108.732 87.78 108.797C87.9909 108.863 88.219 108.877 88.4644 108.84C88.7067 108.814 89.0297 108.752 89.4333 108.654C89.986 108.527 90.4495 108.445 90.8239 108.41C91.1952 108.385 91.5653 108.447 91.9343 108.598C92.3003 108.76 92.6125 109.071 92.871 109.531C93.1138 109.963 93.2172 110.401 93.1811 110.843C93.145 111.285 92.9786 111.7 92.682 112.087C92.3892 112.48 91.9918 112.818 91.4895 113.1C90.7361 113.523 90.022 113.681 89.347 113.574C88.669 113.477 88.1215 113.115 87.7045 112.487L89.3159 111.582C89.4709 111.825 89.6945 111.97 89.9869 112.017C90.2762 112.075 90.5848 112.012 90.9127 111.828C91.1987 111.667 91.3877 111.465 91.4799 111.22C91.5651 110.98 91.5293 110.72 91.3726 110.441C91.263 110.246 91.1082 110.117 90.9082 110.055C90.7052 110.004 90.486 109.989 90.2506 110.011C90.0122 110.044 89.6892 110.106 89.2817 110.197C88.729 110.324 88.2635 110.402 87.8853 110.431C87.507 110.46 87.1314 110.396 86.7585 110.238C86.3856 110.08 86.0718 109.775 85.8172 109.321C85.5979 108.931 85.4954 108.511 85.5097 108.063C85.524 107.614 85.6697 107.179 85.9468 106.758C86.2277 106.343 86.6368 105.985 87.1739 105.683Z" fill="#F8B171"/>
<path d="M74.7571 119.431L74.4064 118.121L76.5625 117.544L74.747 110.763L76.3698 110.328L78.1853 117.109L80.3414 116.532L80.6921 117.842L74.7571 119.431Z" fill="#F8B171"/>
</svg>
